<?xml version="1.0" encoding="utf-8"?>
<!-- Generator: Adobe Illustrator 22.0.0, SVG Export Plug-In . SVG Version: 6.00 Build 0)  -->
<svg version="1.0" id="Layer_2" xmlns="http://www.w3.org/2000/svg" xmlns:xlink="http://www.w3.org/1999/xlink" x="0px" y="0px"
	 viewBox="0 0 335.6 90.5" style="enable-background:new 0 0 335.6 90.5;" xml:space="preserve">
<style type="text/css">
	.st0{fill:#0E532C;}
	.st1{fill:#207D3F;}
	.st2{fill:#6AA755;}
	.st3{fill:#113616;}
	.st4{fill:#389742;}
	.st5{fill:#300A34;}
	.st6{fill:#8E468F;}
	.st7{fill:#AF9FB2;}
	.st8{fill:#146234;}
	.st9{fill:#238A41;}
	.st10{fill:#4E9E54;}
	.st11{fill:#85B36E;}
	.st12{fill:#DA9DAE;}
	.st13{fill:none;stroke:#FFFFFF;stroke-width:0.5881;stroke-miterlimit:10;}
	.st14{fill:#71AA5F;}
	.st15{fill:#1C8641;}
	.st16{fill:#83AF38;}
	.st17{fill:#76AA3A;}
	.st18{fill:#166B39;}
	.st19{fill:#D8ACCD;}
	.st20{fill:#F7E491;}
	.st21{fill:#206233;}
	.st22{fill:#89B464;}
	.st23{fill:#A965A0;}
	.st24{fill:#AE7DAE;}
	.st25{fill:#C39DC3;}
</style>
<g>
	<g>
		<path d="M91.6,52.2c-1-0.9-1.8-1.9-2.4-3c-1.3-2.3-2-4.8-2.3-7.4c-0.2-1.3-0.2-2.5-0.2-3.8c0-1.8,0.2-3.9,0.5-6.2
			c0.3-2,0.6-4.1,1.1-6.2c1.1-4.8,2.9-8.5,5.5-11.2c1.4-1.4,2.9-2.3,4.7-2.6c0.3,0,0.6-0.1,0.9-0.1c0.8,0,1.6,0.2,2.4,0.5
			c1,0.5,1.8,1.2,2.5,2.2c0.8,1.4,1.2,3,1.2,4.8c0,1.8-0.4,3.7-1.3,5.6c-0.1,0.2-0.3,0.3-0.5,0.3s-0.4-0.1-0.5-0.3
			c-0.1-0.1-0.1-0.2-0.1-0.3c0-0.1,0-0.1,0-0.2c0.6-1.6,0.9-3.2,0.9-4.7c0-1.7-0.4-3.2-1.2-4.4c-0.9-1.2-2-1.9-3.4-1.9
			c-1.1,0-2.2,0.4-3.2,1.2c-1.5,1.2-2.8,2.9-3.8,5.2c-1.8,3.9-2.9,8.6-3.3,14.3c-0.1,1.3-0.2,2.6-0.2,3.9c0,1.1,0,2.2,0.1,3.3
			c0.2,2.4,0.9,4.7,2,6.9c0.8,1.5,1.9,2.7,3.2,3.4c1,0.5,2,0.8,3,0.8c1.3,0,2.4-0.4,3.4-1.1c1.2-0.9,2.1-2.2,2.8-3.9
			c0.6-1.4,0.8-2.7,0.8-3.9c0-1.2-0.2-2.1-0.7-2.8c-0.1-0.1-0.1-0.2-0.1-0.3c0-0.2,0.1-0.3,0.2-0.4c0.1-0.1,0.2-0.1,0.4-0.1
			c0.1,0,0.3,0.1,0.4,0.2c0.2,0.3,0.4,0.6,0.6,0.9c0.4,1,0.6,2,0.6,3c0,1.4-0.2,2.7-0.7,4c-0.8,2.4-2.1,4.1-4,5.3
			c-1.2,0.7-2.4,1.1-3.9,1.1C95,54.1,93.2,53.5,91.6,52.2z"/>
		<path d="M120,49.2c-0.9,0-1.7-0.4-2.3-1.1c-0.7-0.8-1.1-1.7-1.3-2.7c-0.4-1.4-0.5-2.8-0.5-4.4c0-0.6,0-1.1,0-1.6
			c-1.1,2.6-2.2,4.5-3.6,5.5c-0.8,0.7-1.7,1-2.5,1c-1.1,0-1.9-0.4-2.6-1.3c-0.6-0.9-0.9-1.9-0.9-3.2c0-1.9,0.5-3.8,1.5-5.9
			c0.8-1.6,1.8-2.9,2.9-3.9c1-0.9,2.1-1.4,3.2-1.4h0.2c0.8,0.1,1.5,0.4,2,0.9s1,1.1,1.3,1.8l0.4,1l0,0.2c0,0.1,0,0.2-0.1,0.3
			c-0.1,0.2-0.2,0.2-0.4,0.2c-0.2,0-0.4-0.1-0.5-0.3l-0.2-0.3c-0.1-0.2-0.2-0.4-0.4-0.6c-0.4-0.7-1-1.2-1.7-1.5
			c-0.2-0.1-0.3-0.1-0.5-0.1c-0.6,0-1.3,0.4-2.1,1.1c-1.2,1.2-2.1,2.7-2.9,4.7c-0.6,1.5-0.9,3-0.9,4.2c0,0.7,0.1,1.3,0.3,1.7
			c0.4,0.6,1,0.9,1.7,0.9c0.4,0,0.8-0.1,1.1-0.3c1.5-1.1,3.1-3.8,4.6-8.2c0.1-0.3,0.2-0.6,0.3-0.8s0.2-0.4,0.5-0.4
			c0.3,0,0.4,0.1,0.5,0.4c0,0,0,0,0,0.1c0,0,0,0.1,0,0.2c0,0.1,0.1,0.4,0.1,1.1l0.1,1.2l0.1,0.8c0.2,2.7,0.4,4.6,0.6,5.7
			c0.2,1.4,0.6,2.4,1.1,3c0.3,0.4,0.7,0.6,1.3,0.6c0.3,0,0.6-0.1,0.8-0.2c1.6-1.1,3-3.4,4.1-7.1c0.5-1.4,0.8-2.6,0.9-3.5
			c0.1-0.3,0.2-0.4,0.5-0.4c0.2,0,0.3,0.1,0.4,0.2c0.1,0.1,0.1,0.2,0.1,0.3s-0.1,0.7-0.4,1.8c-0.3,1-0.6,2.2-1.2,3.6
			c-0.9,2.4-1.9,4.2-3.1,5.3C122,48.7,121.1,49.2,120,49.2z"/>
		<path d="M137,48.8c-0.4,0-0.7-0.1-1-0.3c-0.8-0.5-1.5-1.5-1.9-2.9c-0.5-1.6-0.7-3.2-0.7-4.8c0-2.1,0.3-4.5,0.9-7
			c0.1-0.5,0.2-0.8,0.2-1c0-0.5-0.1-0.8-0.4-0.8c-0.1,0-0.2,0-0.3,0.1c-0.4,0.2-0.8,0.5-1,0.9l-0.4,0.7c-0.9,1.6-2,4.2-3.3,7.8
			c-0.5,1.4-0.9,2.4-1.1,3.1c-0.1,0.4-0.3,0.8-0.4,1.1c-0.1,0.2-0.2,0.3-0.5,0.3l-0.2,0c-0.2-0.1-0.3-0.3-0.3-0.5l0-0.6v-2.5
			c0-1.6,0-4.4,0.1-8.4c0-0.8,0-1.5,0-2.1v-0.1c0-0.1,0-0.2,0.1-0.3s0.2-0.2,0.4-0.2c0.2,0,0.4,0.1,0.4,0.2c0.7,1.4,1.1,3.3,1.2,5.7
			l0,0.9c0,0.4,0,0.8,0,1.1v0.1c0.9-2.4,1.8-4.5,2.7-6.3c0.6-1.2,1.3-2,1.9-2.3c0.3-0.1,0.5-0.2,0.8-0.2c0.5,0,0.9,0.2,1.3,0.6
			c0.4,0.5,0.6,1.2,0.6,2c0,0.1-0.1,0.9-0.2,2.5c-0.2,1.9-0.3,3.5-0.3,4.9c0,0.3,0,0.6,0,0.9c0,1.6,0.2,3.2,0.7,4.7
			c0.3,0.8,0.6,1.2,1.1,1.2c0.4,0,0.7-0.2,0.9-0.7c1.2-1.9,2.5-5,3.9-9.5c0.1-0.2,0.2-0.4,0.5-0.4l0.2,0c0.2,0.1,0.3,0.2,0.3,0.5
			l0,0.2c-0.9,3.2-2,6-3.2,8.4c-0.3,0.6-0.7,1.2-1.1,1.7c-0.3,0.5-0.8,0.9-1.4,1.1C137.3,48.8,137.2,48.8,137,48.8z"/>
		<path d="M145.8,49.7c-0.4,0-0.9-0.1-1.3-0.3c-0.9-0.5-1.5-1.3-1.8-2.3c-0.6-1.6-0.8-4-0.8-7.1c0-1.8,0.1-3.7,0.2-5.6
			c0.2-3.2,0.5-6.5,0.9-9.7l0.1-0.9c-1,0.1-1.9,0.2-2.7,0.2c-0.3,0-0.6,0-0.9,0c-1.1,0-2.2-0.2-3.2-0.7l-0.3-0.2
			c-0.2-0.1-0.3-0.2-0.3-0.3c0-0.1,0-0.1,0.1-0.2c0-0.1,0.1-0.1,0.2-0.1l0.1,0c0.7,0.4,1.9,0.6,3.4,0.6c1.2,0,2.5-0.1,3.7-0.4h0.1
			c0.1-1.1,0.4-2.8,0.8-4.9l0-0.1c0.1-0.5,0.2-1,0.3-1.5c0.1-0.2,0.2-0.3,0.5-0.3l0.1,0c0.2,0.1,0.4,0.2,0.4,0.4l0,0.1
			c-0.1,0.5-0.1,1.4-0.2,2.8l-0.1,1.5c-0.1,0.8-0.1,1.3-0.1,1.6l1-0.3c0.9-0.3,1.8-0.6,2.8-0.8c2.1-0.5,4-0.8,5.7-0.8
			c1.1,0,2.3,0.1,3.4,0.3c0.4,0.1,0.9,0.3,1.4,0.5c0.2,0.1,0.4,0.2,0.6,0.4s0.3,0.3,0.3,0.6c0,0.1-0.1,0.3-0.2,0.4
			c-0.1,0.2-0.3,0.3-0.5,0.3c-0.2,0-0.4-0.1-0.5-0.3l0,0c-0.2-0.2-0.6-0.5-1.1-0.7c-1.1-0.4-2.2-0.6-3.5-0.6c-0.8,0-1.6,0.1-2.5,0.2
			l-1,0.2c-1.7,0.3-3.1,0.7-4.2,1.1c-0.6,0.2-1.2,0.4-1.6,0.5l-0.3,4.5c-0.4,5.2-0.5,9.3-0.5,12.4c0,1.3,0,2.6,0.1,3.8l0,0.3
			c0,0.6,0.1,1.3,0.3,2c0.2,0.7,0.5,1.2,1,1.7c0.3,0.2,0.6,0.3,0.8,0.3c0.5,0,1-0.2,1.4-0.5c0.6-0.5,1.1-1.1,1.4-1.7
			c1.3-2.3,2.4-5.3,3.1-8.9c0.1-0.3,0.2-0.4,0.5-0.4l0.1,0c0.3,0.1,0.4,0.2,0.4,0.5c0,0.3-0.2,1.3-0.7,3.1c-0.7,2.6-1.6,4.7-2.6,6.4
			c-0.9,1.5-2,2.5-3.2,2.9C146.4,49.7,146.1,49.7,145.8,49.7z"/>
		<path d="M153.5,29.3c-0.5,0-0.9-0.2-1.2-0.5c-0.3-0.3-0.5-0.7-0.5-1.2c0-0.4,0.1-0.9,0.4-1.5c0.3-0.5,0.6-0.8,1-0.8
			c0.5,0,0.9,0.2,1.2,0.6s0.5,0.9,0.5,1.4c0,0.4-0.1,0.9-0.4,1.3C154.3,29.1,153.9,29.3,153.5,29.3z M155.3,46.9
			c-0.4,0-0.8-0.1-1.3-0.3c-0.7-0.5-1.3-1.3-1.6-2.3s-0.4-2.4-0.4-3.9c0-0.7,0.1-1.7,0.2-2.8c0.2-2,0.4-3.4,0.5-4.2
			c0.1-0.4,0.1-0.9,0.1-1.3v-0.3c0-0.1,0-0.2,0-0.3c0.1-0.2,0.3-0.3,0.4-0.3c0.4,0,0.6,0.3,0.7,1c0.2,0.8,0.2,1.9,0.2,3.2
			c0,1.2,0,2.4,0,3.6l0,1.1c0,0.7,0,1.4,0.1,2.2c0.1,1,0.2,1.8,0.4,2.3c0.2,0.5,0.6,0.8,1.1,0.8l0.2,0c1-0.1,1.7-0.6,2.3-1.3
			c1.3-1.5,2.3-3.8,3.2-6.9c0.1-0.2,0.2-0.4,0.5-0.4l0.1,0c0.2,0.1,0.4,0.2,0.4,0.5l0,0.1c-1,3.4-2.1,5.9-3.6,7.5
			c-0.7,0.9-1.6,1.5-2.7,1.9C155.8,46.8,155.6,46.9,155.3,46.9z"/>
		<path d="M171.8,48.8c-0.4,0-0.7-0.1-1-0.3c-0.8-0.5-1.5-1.5-1.9-2.9c-0.5-1.6-0.7-3.2-0.7-4.8c0-2.1,0.3-4.5,0.9-7
			c0.1-0.5,0.2-0.8,0.2-1c0-0.5-0.1-0.8-0.4-0.8c-0.1,0-0.2,0-0.3,0.1c-0.4,0.2-0.8,0.5-1,0.9l-0.4,0.7c-0.9,1.6-2,4.2-3.3,7.8
			c-0.5,1.4-0.9,2.4-1.1,3.1c-0.1,0.4-0.3,0.8-0.4,1.1c-0.1,0.2-0.2,0.3-0.5,0.3l-0.2,0c-0.2-0.1-0.3-0.3-0.3-0.5l0-0.6v-2.5
			c0-1.6,0-4.4,0.1-8.4c0-0.8,0-1.5,0-2.1v-0.1c0-0.1,0-0.2,0.1-0.3s0.2-0.2,0.4-0.2c0.2,0,0.4,0.1,0.4,0.2c0.7,1.4,1.1,3.3,1.2,5.7
			l0,0.9c0,0.4,0,0.8,0,1.1v0.1c0.9-2.4,1.8-4.5,2.7-6.3c0.6-1.2,1.3-2,1.9-2.3c0.3-0.1,0.5-0.2,0.8-0.2c0.5,0,0.9,0.2,1.3,0.6
			c0.4,0.5,0.6,1.2,0.6,2c0,0.1-0.1,0.9-0.2,2.5c-0.2,1.9-0.3,3.5-0.3,4.9c0,0.3,0,0.6,0,0.9c0,1.6,0.2,3.2,0.7,4.7
			c0.3,0.8,0.6,1.2,1.1,1.2c0.4,0,0.7-0.2,0.9-0.7c1.2-1.9,2.5-5,3.9-9.5c0.1-0.2,0.2-0.4,0.5-0.4l0.2,0c0.2,0.1,0.3,0.2,0.3,0.5
			l0,0.2c-0.9,3.2-2,6-3.2,8.4c-0.3,0.6-0.7,1.2-1.1,1.7c-0.3,0.5-0.8,0.9-1.4,1.1C172.2,48.8,172,48.8,171.8,48.8z"/>
		<path d="M190.8,49.8L190.8,49.8c-1.4,0-2.4-0.7-3.1-2.2c-0.5-1.2-0.8-2.4-0.8-3.7c0-1.4,0.5-3.9,1.6-7.5c0.3-1,0.4-1.7,0.4-2.2
			c0-0.2,0-0.5-0.1-0.8c-0.1-0.3-0.3-0.6-0.7-0.7c-0.1,0-0.3,0-0.4,0c-0.4,0-0.9,0.1-1.4,0.3c-1.2,0.6-2.3,1.6-3.2,3.3
			c-1.3,2.4-2,5.5-2.1,9.1l0,0.4c0,0.3-0.2,0.5-0.5,0.5h0c-0.2,0-0.3-0.1-0.4-0.3l-0.1-0.2c-1.1-1.9-2-4.3-2.7-7.1
			c-0.8-3.5-1.2-7.1-1.2-10.8c0-5.5,0.7-10.6,2.2-15.4c1-3.2,2.2-5.6,3.7-7.3c0.6-0.8,1.4-1.3,2.3-1.6c0.3-0.1,0.6-0.1,0.8-0.1
			c1,0,1.7,0.4,2.3,1.2c0.6,1,0.9,2.5,0.9,4.4c0,3.7-0.8,8.2-2.4,13.5c-2,6.4-4.5,11.3-7.3,14.6c0.3,2,0.8,4.1,1.5,6.4
			c0.1-1.3,0.3-2.6,0.7-4.1c0.2-0.6,0.3-1.2,0.6-1.7c1.1-2.7,2.7-4.8,4.8-6c0.6-0.4,1.3-0.6,1.9-0.6c0.4,0,0.7,0.1,1.1,0.2
			c0.7,0.3,1.2,0.8,1.4,1.5c0.2,0.6,0.4,1.2,0.4,1.8c0,0.6-0.1,1.3-0.3,2l-1,3.1c-0.3,1-0.6,2-0.8,3.1c-0.1,0.7-0.2,1.4-0.2,2.1
			c0,0.7,0.1,1.3,0.3,1.9c0.5,1.3,1.1,1.9,1.8,1.9c0.3,0,0.6-0.1,1-0.4c1.7-1.5,3.4-5.1,5.1-10.7l0.1-0.4c0.1-0.2,0.2-0.3,0.5-0.3
			l0.2,0c0.2,0.1,0.3,0.2,0.3,0.5c0,0,0,0.1,0,0.1c0,0,0,0.2-0.1,0.4c-0.5,1.8-1.1,3.5-1.7,5.2c-1.1,2.9-2.3,4.9-3.5,6.1
			C192.2,49.5,191.6,49.8,190.8,49.8z M178.4,35.7c1.8-2.3,3.3-5.1,4.6-8.4c1.3-3.3,2.4-6.6,3.1-9.8c0.7-3.3,1.1-6.1,1.1-8.5
			c0-1.2-0.2-2.3-0.6-3.1c-0.3-0.7-0.8-1-1.4-1c-0.2,0-0.4,0-0.5,0.1c-0.6,0.3-1.1,0.7-1.5,1.3c-0.9,1.2-1.7,2.8-2.4,4.8
			c-0.6,1.7-1.2,3.8-1.7,6.2c-0.8,3.9-1.2,7.9-1.2,12.1C178,31.5,178.1,33.6,178.4,35.7z"/>
		<path d="M202.3,45.4H202c-0.9,0-1.8-0.3-2.5-0.8c-0.6-0.5-1.1-1-1.4-1.7c-0.7-1.3-1.1-2.8-1.1-4.4c0-1.2,0.2-2.3,0.7-3.5
			s1.2-2.1,2.3-2.8c0.4-0.2,0.7-0.3,0.9-0.3c0.1,0,0.2,0,0.3,0.1c0.2,0.1,0.2,0.2,0.2,0.5c0.5-0.6,1.2-1,1.9-1
			c0.9,0,1.7,0.4,2.3,1.1c0.9,1.2,1.3,2.8,1.3,4.9c0,0.9-0.1,1.8-0.3,2.7l0.4,0c0.6,0,1.4-0.2,2.2-0.5s1.5-1.2,2.1-2.6
			c0.1-0.2,0.2-0.3,0.5-0.3c0.1,0,0.1,0,0.2,0c0.3,0.1,0.4,0.3,0.3,0.6c-0.6,1.6-1.6,2.7-2.9,3.4c-0.8,0.3-1.7,0.5-2.6,0.5h-0.4
			c-0.3,1-0.7,1.8-1.2,2.5C204.4,44.8,203.4,45.3,202.3,45.4z M202.8,43.9c1.1,0,2-0.9,2.6-2.7c-0.3,0-0.5,0-0.6-0.1
			c-1.4-0.2-2.5-0.9-3.3-1.9c-0.7-0.9-1-2-1-3.4c0-0.8,0.1-1.4,0.3-1.9c0.2-0.5,0.3-0.8,0.4-1c-0.1,0.1-0.3,0.2-0.4,0.3
			c-1.1,1-1.6,2.6-1.6,4.7c0,0.6,0,1.1,0.1,1.7c0.2,1.4,0.7,2.5,1.5,3.4C201.4,43.6,202,43.9,202.8,43.9z M205.8,39.9
			c0.2-0.8,0.2-1.6,0.2-2.4c0-2-0.4-3.5-1.3-4.5c-0.3-0.3-0.6-0.4-0.9-0.4h-0.1c-0.4,0.1-0.7,0.3-0.8,0.7c-0.2,0.6-0.4,1.2-0.4,2
			c0,0.5,0.1,1.1,0.2,1.6c0.3,1.4,1.2,2.3,2.7,3L205.8,39.9C205.8,39.9,205.8,39.9,205.8,39.9z"/>
	</g>
	<g>
		<path d="M212.3,65.3c-0.2,0-0.5-0.1-0.7-0.2c-0.2-0.2-0.5-0.4-0.6-0.6c-0.6-0.9-1.1-2-1.5-3.3c-1.4,1.9-2.6,2.9-3.7,2.9
			c-0.3,0-0.6-0.1-0.8-0.2c-0.3-0.1-0.5-0.3-0.6-0.6c-0.3-0.4-0.4-0.9-0.4-1.5c0-0.7,0.1-1.4,0.4-2.1c0.4-1.1,1.1-2,1.8-2.6
			c0.5-0.4,1-0.6,1.5-0.6c0.4,0,0.7,0.1,1,0.3l0.1,0c0-0.5,0-1,0-1.6c0-1.7,0.2-3.4,0.5-5.1c0.4-2,0.9-3.7,1.7-5.1
			c0.7-1.3,1.5-1.9,2.4-1.9c0.5,0,0.8,0.2,1.1,0.5c0.4,0.5,0.5,1.3,0.5,2.2c0,0,0,0.3,0,0.8c0,0.5-0.1,1.3-0.3,2.5
			c-0.2,1-0.4,2-0.7,2.9c-0.8,2.9-1.8,5.3-3,7.2l-0.8,1.3l0,0.1c0.1,0.7,0.3,1.4,0.5,2.1c0.2,0.6,0.5,1.2,0.8,1.7
			c0.3,0.4,0.6,0.6,0.9,0.6c0.3,0,0.5-0.1,0.7-0.4c0.4-0.5,0.7-1.1,0.9-1.8c0.2-0.6,0.3-1.1,0.5-1.5l0.3-1.3c0-0.1,0.1-0.2,0.2-0.2
			c0.1,0,0.2,0,0.2,0.1c0,0,0,0.1,0,0.1c0,0,0,0,0,0c0,0,0,0.1-0.1,0.4c0,0.2-0.1,0.6-0.2,1c-0.2,1-0.5,1.8-0.8,2.6
			c-0.4,0.9-0.9,1.4-1.4,1.5C212.4,65.3,212.4,65.3,212.3,65.3z M205.8,63.5c0.3,0,0.6-0.1,0.9-0.3c0.8-0.5,1.7-1.4,2.6-2.7v0
			c-0.2-0.7-0.3-1.3-0.4-1.9l0-0.4c0-0.3-0.1-0.5-0.1-0.5c0,0,0,0-0.1-0.1c-0.2-0.2-0.4-0.4-0.7-0.5l-0.1,0c-0.2,0-0.4,0.1-0.6,0.2
			c-0.3,0.2-0.6,0.5-0.9,0.8l-0.1,0.2c-0.3,0.4-0.5,0.8-0.7,1.2c-0.3,0.6-0.5,1.1-0.6,1.7l0,0.1c-0.1,0.3-0.1,0.6-0.1,1
			c0,0,0,0.1,0,0.3c0,0.2,0.1,0.4,0.4,0.7C205.5,63.4,205.6,63.5,205.8,63.5z M209.9,59.5c0.2-0.3,0.3-0.5,0.5-0.8
			c0.9-1.6,1.8-3.5,2.5-5.7c0.7-2.3,1.2-4.3,1.4-6.2c0-0.2,0-0.5,0-0.7c0-0.3,0-0.7-0.1-1.1c0-0.5-0.2-0.8-0.4-1.1
			c-0.1-0.1-0.3-0.2-0.5-0.2c-0.2,0-0.3,0.1-0.5,0.2c-0.4,0.3-0.7,0.7-1,1.1c-0.7,1.3-1.2,3-1.6,5.1c-0.4,1.9-0.5,3.8-0.5,5.8
			c0,0.5,0,1,0,1.5C209.8,58,209.8,58.7,209.9,59.5z"/>
		<path d="M221,65.7c-0.5,0-0.8-0.2-1.1-0.5c-0.3-0.4-0.5-0.8-0.7-1.3c-0.2-0.7-0.3-1.4-0.3-2.2c0-0.3,0-0.6,0-0.8
			c-0.5,1.3-1.1,2.2-1.8,2.8c-0.4,0.3-0.8,0.5-1.2,0.5c-0.5,0-1-0.2-1.3-0.6c-0.3-0.4-0.5-1-0.5-1.6c0-0.9,0.3-1.9,0.8-2.9
			c0.4-0.8,0.9-1.4,1.5-2c0.5-0.5,1.1-0.7,1.6-0.7h0.1c0.4,0,0.7,0.2,1,0.4c0.3,0.3,0.5,0.6,0.6,0.9l0.2,0.5l0,0.1c0,0,0,0.1,0,0.1
			c0,0.1-0.1,0.1-0.2,0.1c-0.1,0-0.2,0-0.2-0.1l-0.1-0.1c-0.1-0.1-0.1-0.2-0.2-0.3c-0.2-0.3-0.5-0.6-0.8-0.8c-0.1,0-0.2,0-0.3,0
			c-0.3,0-0.7,0.2-1,0.6c-0.6,0.6-1.1,1.4-1.4,2.3c-0.3,0.8-0.5,1.5-0.5,2.1c0,0.4,0.1,0.6,0.2,0.8c0.2,0.3,0.5,0.5,0.9,0.5
			c0.2,0,0.4-0.1,0.6-0.2c0.8-0.5,1.5-1.9,2.3-4.1c0.1-0.2,0.1-0.3,0.1-0.4c0-0.1,0.1-0.2,0.2-0.2c0.1,0,0.2,0.1,0.2,0.2
			c0,0,0,0,0,0c0,0,0,0,0,0.1c0,0,0,0.2,0.1,0.5l0.1,0.6l0,0.4c0.1,1.4,0.2,2.3,0.3,2.8c0.1,0.7,0.3,1.2,0.5,1.5
			c0.1,0.2,0.4,0.3,0.6,0.3c0.2,0,0.3,0,0.4-0.1c0.8-0.5,1.5-1.7,2.1-3.5c0.2-0.7,0.4-1.3,0.5-1.7c0-0.1,0.1-0.2,0.2-0.2
			c0.1,0,0.2,0,0.2,0.1c0,0,0,0.1,0,0.1s-0.1,0.3-0.2,0.9c-0.1,0.5-0.3,1.1-0.6,1.8c-0.5,1.2-1,2.1-1.5,2.6
			C222,65.5,221.5,65.7,221,65.7z"/>
		<path d="M224.8,67.2c-0.3,0-0.6-0.1-0.9-0.2c-0.3-0.1-0.4-0.3-0.5-0.6c-0.1-0.1-0.1-0.3-0.1-0.5c0-0.1,0-0.2,0-0.3
			c0.2-0.6,0.6-1.2,1.3-1.8c0.7-0.6,1.5-1.2,2.3-1.7c-0.1-0.1-0.4-0.3-0.8-0.6c-0.4-0.3-0.8-0.6-1.1-0.9c-0.6-0.6-0.9-1.3-1-2.2
			c0-0.5,0.1-1,0.3-1.4c0.2-0.5,0.5-0.8,0.9-1.1c0.4-0.3,0.9-0.5,1.4-0.5c0.1,0,0.3,0,0.4,0c0.6,0.1,1.1,0.5,1.4,1
			c0.2,0.3,0.3,0.6,0.4,0.9c0,0,0,0,0,0c0.1,0.2,0.1,0.3,0.1,0.4c0,0.1,0,0.2-0.1,0.3c-0.1,0.1-0.2,0.2-0.3,0.2
			c-0.2,0-0.3-0.1-0.4-0.2s-0.1-0.3-0.1-0.6c0-0.4-0.2-0.8-0.4-1.1c-0.2-0.2-0.5-0.3-0.8-0.3c-0.7,0-1.2,0.3-1.6,0.8
			c-0.3,0.4-0.4,0.9-0.4,1.4c0,0.6,0.2,1.1,0.7,1.5c0.3,0.3,0.6,0.5,1,0.8c0.4,0.3,0.8,0.6,1.2,1c1-0.6,1.8-1.1,2.3-1.5
			c0.5-0.4,0.7-0.6,0.7-0.6c0.1-0.1,0.1-0.1,0.2-0.1c0.1,0,0.1,0,0.2,0.1s0.1,0.1,0.1,0.2c0,0.1,0,0.1-0.1,0.2c0,0-0.3,0.3-0.8,0.6
			c-0.5,0.4-1.2,0.9-2.3,1.5c0.4,0.5,0.5,1,0.5,1.6c0,0,0,0.2,0,0.5c0,0.3-0.1,0.6-0.4,1.1c-0.3,0.5-0.8,1-1.3,1.3
			c-0.5,0.3-1.1,0.6-1.7,0.7C225.2,67.1,225,67.2,224.8,67.2z M224.5,66.5c0.3,0,0.5,0,0.8-0.1c1-0.3,1.7-0.9,2.2-1.7
			c0.2-0.3,0.3-0.6,0.3-0.9c0-0.4-0.1-0.8-0.4-1.1c-0.9,0.5-1.6,1-2.3,1.6c-0.7,0.6-1.1,1.1-1.2,1.6c0,0.1,0,0.1,0,0.2
			c0,0.1,0,0.2,0.1,0.4S224.2,66.5,224.5,66.5z"/>
	</g>
	<g>
		<path d="M227.6,89.1c0,0-0.1,0-0.2,0c-0.1,0-0.2-0.1-0.3-0.2c-0.1-0.1-0.1-0.3-0.1-0.4c0-0.2,0.1-0.4,0.3-0.6
			c1.2-0.9,2.2-2.1,3-3.4c1.8-2.9,3-6.4,3.7-10.6c0.6-3.1,1-6.2,1.2-9.4c0.1-2.4,0.2-4.7,0.2-6.9c0-0.7,0-1.4,0-2h0
			c-0.3-0.1-0.6-0.1-1.1-0.1c-0.7,0-1.3,0.1-1.7,0.3c-0.1,0-0.2,0-0.3,0c-0.1,0-0.2,0-0.3-0.1c-0.2-0.1-0.3-0.3-0.3-0.6
			c0-0.2,0.1-0.4,0.3-0.6c0.3-0.2,0.6-0.3,0.9-0.4c0.6-0.2,1.4-0.3,2.5-0.3c0,0,0,0,0.1,0c0-1.1-0.1-2.2-0.2-3.3
			c-0.1-1.2-0.3-3.2-0.6-6c-0.3-2.9-0.6-4.7-0.7-5.3c-0.6-0.1-1.2-0.2-1.9-0.4c-0.3-0.1-0.5-0.3-0.5-0.6l0-0.2
			c0.1-0.3,0.3-0.5,0.6-0.5l0.1,0c1.9,0.3,3.8,0.4,5.9,0.4c2.4,0,4.7-0.2,7-0.5c2.8-0.4,5.4-0.9,7.8-1.7c1.6-0.6,2.8-1.3,3.6-2.2
			c0.1-0.1,0.3-0.2,0.5-0.2c0.2,0,0.3,0.1,0.5,0.2c0.1,0.1,0.2,0.3,0.2,0.5v0.1c-0.2,0.9-0.7,1.7-1.5,2.5c-1.1,1-2.8,1.8-4.8,2.3
			c-2.7,0.7-5.7,1-9.1,1c-1.7,0-3.7-0.1-6-0.4c0,0.1,0.1,0.5,0.3,1.3c0.4,2,0.6,3.8,0.8,5.4c0.2,2.5,0.4,5,0.4,7.5l0.7,0.1
			c1.3,0.1,2.3,0.2,3,0.2c0.8,0,1.5,0,2.2-0.1c1.8-0.2,3.4-1.1,5-2.7l0.4-0.4c0.4-0.4,0.7-0.6,0.9-0.6c0.2,0,0.4,0.1,0.6,0.2
			c0.1,0.2,0.2,0.3,0.2,0.5v0.1c-0.1,0.7-0.3,1.3-0.7,1.9c-0.7,1.2-1.7,2.1-3.1,2.8c-1.2,0.5-2.5,0.8-3.9,0.8c-1,0-2-0.1-3-0.3
			c-0.8-0.1-1.5-0.3-2.2-0.4c0,11.1-1.5,19.9-4.5,26.3c-0.6,1.2-1.1,2.1-1.7,3v0h0c-1,1.4-2.2,2.6-3.6,3.5
			C227.9,89.1,227.8,89.1,227.6,89.1z"/>
		<path d="M263.4,83.7l-0.3,0c-1.1-0.2-2-0.9-2.8-2c-1-1.4-1.8-2.9-2.4-4.5l-0.6-1.6c-1.1-3.2-1.8-6.7-2.2-10.6
			c-0.2-1.9-0.3-3.8-0.3-5.7c0-4.1,0.4-8.2,1.1-12.4c0.9-4.8,2.3-8.8,4.1-12.1c0.9-1.6,2-2.9,3.1-3.7c0.8-0.6,1.7-0.9,2.6-0.9
			c0.4,0,0.8,0.1,1.2,0.2c0.9,0.4,1.5,1,1.8,1.9c0.5,1.2,0.7,2.6,0.7,4.4c0,4.5-1,10-3,16.5c-2.5,7.7-5.3,13.4-8.5,17.1
			c0.4,2.3,0.8,4.4,1.4,6.4c0.4,1.5,1.1,2.9,2,4.2c0.8,1,1.5,1.5,2.1,1.5l0.3,0c0.9-0.4,1.8-1.4,2.5-3c0.7-1.6,1.4-3.5,2-5.7
			l0.8-3.2c0.1-0.3,0.3-0.5,0.6-0.5l0.1,0c0.3,0.1,0.5,0.2,0.5,0.6l-0.2,1c-0.5,2.3-1,4.3-1.6,6.1c-0.9,2.8-2.1,4.7-3.5,5.7
			C264.5,83.6,264,83.7,263.4,83.7z M257.7,68.7c2.9-3.6,5.4-8.9,7.6-15.8c1.9-6.1,2.8-11.3,2.9-15.5v-0.5c0-1.9-0.4-3.4-1.2-4.4
			c-0.3-0.3-0.7-0.5-1.1-0.5c-0.4,0-0.8,0.2-1.2,0.4c-1.3,1-2.6,3-3.7,6c-1.4,3.7-2.4,7.8-3,12.3c-0.5,3.5-0.7,6.9-0.7,10.1
			c0,2.4,0.1,4.3,0.2,5.8c0,0.3,0.1,0.9,0.2,1.7C257.7,68.4,257.7,68.6,257.7,68.7z"/>
		<path d="M275.2,80.2h-0.3c-1.1,0-2.1-0.3-3-1c-0.7-0.5-1.3-1.2-1.7-2c-0.9-1.5-1.3-3.3-1.3-5.2c0-1.4,0.3-2.8,0.8-4.2
			c0.5-1.4,1.5-2.5,2.8-3.3c0.5-0.2,0.9-0.4,1.1-0.4c0.1,0,0.2,0,0.3,0.1c0.2,0.1,0.3,0.3,0.3,0.6c0.6-0.8,1.4-1.2,2.3-1.2
			c1.1,0,2,0.4,2.7,1.3c1,1.4,1.6,3.3,1.6,5.8c0,1-0.1,2.1-0.3,3.2l0.4,0c0.8,0,1.6-0.2,2.6-0.6c1-0.4,1.8-1.5,2.5-3.2
			c0.1-0.3,0.3-0.4,0.6-0.4c0.1,0,0.1,0,0.2,0c0.3,0.1,0.5,0.4,0.4,0.8c-0.7,1.9-1.9,3.3-3.5,4c-1,0.4-2,0.6-3.1,0.6h-0.4
			c-0.3,1.1-0.8,2.1-1.5,2.9C277.7,79.4,276.5,80.1,275.2,80.2z M275.8,78.4c1.3,0,2.4-1.1,3.2-3.2c-0.3,0-0.6,0-0.7-0.1
			c-1.6-0.3-2.9-1-3.9-2.3c-0.8-1.1-1.2-2.4-1.2-4c0-0.9,0.1-1.7,0.3-2.2c0.2-0.6,0.4-0.9,0.5-1.1c-0.2,0.1-0.3,0.2-0.5,0.4
			c-1.3,1.2-1.9,3.1-1.9,5.6c0,0.7,0.1,1.3,0.2,2c0.2,1.7,0.8,3,1.8,4C274.1,78.1,274.9,78.4,275.8,78.4z M279.4,73.7
			c0.2-1,0.3-1.9,0.3-2.9c0-2.4-0.5-4.2-1.5-5.3c-0.3-0.4-0.7-0.5-1.1-0.5H277c-0.5,0.1-0.8,0.4-1,0.8c-0.3,0.7-0.4,1.5-0.4,2.3
			c0,0.6,0.1,1.3,0.2,1.9c0.4,1.6,1.5,2.8,3.2,3.6L279.4,73.7C279.3,73.6,279.4,73.7,279.4,73.7z"/>
		<path d="M292.5,85.6h-0.2c-0.9,0-1.7-0.4-2.2-1.1c-0.3-0.5-0.5-1.2-0.5-2c0-0.9,0.2-2.2,0.6-3.9l0.3-1.6c0.3-1.4,0.5-2.5,0.5-3.1
			c0-0.3,0-0.6,0-0.9c-0.1-0.4-0.3-0.7-0.6-0.9c-0.5-0.2-1-0.3-1.5-0.3l-0.4,0c-2,0-3.7-0.8-4.9-2.3c-0.9-1.2-1.3-2.5-1.3-4
			c0-1,0.2-1.9,0.6-2.9c0.4-1,1.1-1.8,2-2.3c0.5-0.2,1-0.4,1.6-0.4c0,0,0.2,0,0.5,0c0.3,0,0.7,0.2,1.2,0.5c0.6,0.5,1,1.1,1.1,1.9
			c0.1,0.4,0.1,0.8,0.1,1.2c0,0.4,0,0.7-0.1,1.1c-0.3,1.6-0.7,3.2-1.3,4.7c0.4,0,0.8,0.1,1.2,0.1h0.4c0.7,0,1.3,0.1,1.9,0.3
			c1.5,0.7,2.2,2,2.2,3.9c0,1.2-0.2,2.5-0.6,4l-0.9,3.2c-0.2,0.7-0.3,1.5-0.3,2.2c0,0.6,0.3,0.9,0.8,0.9c0.4,0,0.8-0.1,1.2-0.3
			c1-0.5,1.8-1.3,2.5-2.2c1-1.3,1.9-3.1,2.9-5.1c0.9-2.1,1.7-4.1,2.3-6c0.1-0.3,0.3-0.4,0.6-0.4l0.2,0c0.3,0.1,0.4,0.3,0.4,0.6
			c0,0.2-0.3,1.2-0.9,2.7c-1.6,4.4-3.4,7.6-5.2,9.9C295.2,84.7,293.9,85.5,292.5,85.6z M286.8,69l0.1-0.3c0.5-1.3,0.9-2.6,1.1-3.8
			c0.1-0.5,0.1-1,0.1-1.5c0-0.3,0-0.6-0.1-0.9c-0.1-0.3-0.3-0.5-0.6-0.7c-0.2-0.1-0.5-0.1-0.7-0.1c-0.6,0-1.1,0.3-1.5,0.9
			c-0.5,0.8-0.8,1.6-0.8,2.6c0,0.7,0.1,1.3,0.3,1.9C285.2,67.9,285.8,68.6,286.8,69z"/>
		<path d="M307,81.2c-1.5,0-2.7-0.6-3.8-1.9c-0.6-0.8-1-1.6-1.3-2.6c-0.4-1.5-0.7-3-0.7-4.6c0-3.4,0.7-6.5,2-9.3
			c1-2.2,2.3-3.2,3.9-3.2c0.8,0,1.6,0.3,2.1,1c0.6,0.8,1,1.9,1,3.2c0,1.7-0.5,3.3-1.5,4.8c-1.2,1.8-2.8,2.8-4.9,3.1v0.7
			c0,1.6,0.2,3,0.5,4.2c0.2,1,0.7,1.8,1.5,2.4c0.5,0.4,1.1,0.6,1.9,0.6c1.9,0,3.6-1.2,5.2-3.7c1-1.6,1.8-3.4,2.4-5.5
			c0.1-0.3,0.3-0.5,0.6-0.5l0.1,0c0.3,0.1,0.5,0.3,0.5,0.6c0,0.1,0,0.3-0.1,0.5c-0.6,2.1-1.4,4-2.6,5.8c-1.5,2.2-3.2,3.6-5.1,4.3
			C308,81.1,307.5,81.2,307,81.2z M303.9,70.4c1.7-0.3,3-1.1,3.8-2.5c0.9-1.3,1.3-2.7,1.3-4.3c0-0.3,0-0.6-0.1-1
			c0-0.4-0.2-0.7-0.6-1.1c-0.3-0.2-0.6-0.3-0.9-0.3c-0.1,0-0.2,0-0.4,0c-0.5,0.2-0.9,0.5-1.2,1c-0.3,0.5-0.5,1-0.7,1.4
			c-0.6,1.5-0.9,3.1-1.1,4.7L303.9,70.4z"/>
		<path d="M316.6,88.1c-0.7,0-1.5-0.1-2.2-0.4c-0.6-0.3-1-0.8-1.3-1.4c-0.1-0.4-0.2-0.7-0.2-1.1c0-0.2,0-0.5,0.1-0.8
			c0.4-1.4,1.4-2.8,3.1-4.2s3.5-2.8,5.5-4c-0.3-0.3-1-0.8-1.8-1.5c-1-0.7-1.8-1.4-2.7-2.2c-1.5-1.4-2.2-3.2-2.3-5.3
			c0-1.2,0.3-2.3,0.8-3.4c0.5-1.1,1.3-2,2.2-2.7c1.1-0.8,2.2-1.1,3.4-1.1c0.3,0,0.7,0,1,0.1c1.4,0.4,2.6,1.2,3.4,2.4
			c0.4,0.7,0.8,1.4,1,2.2c0,0,0,0.1,0,0.1c0.1,0.5,0.2,0.8,0.2,1c0,0.2-0.1,0.5-0.2,0.7c-0.2,0.3-0.5,0.4-0.8,0.4
			c-0.5,0-0.8-0.2-0.9-0.6s-0.2-0.8-0.2-1.3c0-1-0.4-1.9-1-2.5c-0.5-0.5-1.1-0.8-1.9-0.8c-1.6,0-2.8,0.7-3.7,2c-0.7,1-1,2.2-1,3.4
			c0,1.4,0.6,2.6,1.7,3.7c0.7,0.7,1.5,1.3,2.3,1.9c1,0.7,2,1.5,2.8,2.3c2.5-1.4,4.3-2.5,5.4-3.5c1.2-0.9,1.7-1.4,1.8-1.5
			c0.1-0.1,0.3-0.2,0.4-0.2s0.3,0.1,0.4,0.2c0.1,0.1,0.2,0.3,0.2,0.4s-0.1,0.3-0.2,0.4c0,0.1-0.6,0.6-1.8,1.5s-3,2.1-5.4,3.5
			c0.8,1.2,1.3,2.4,1.3,3.8c0,0.1,0,0.4,0,1.1c0,0.6-0.4,1.5-1,2.6c-0.8,1.3-1.8,2.3-3.1,3.1c-1.3,0.8-2.7,1.3-4.1,1.6
			C317.5,88.1,317,88.1,316.6,88.1z M315.9,86.5c0.6,0,1.3-0.1,2-0.3c2.3-0.8,4-2.2,5.2-4.1c0.4-0.7,0.6-1.5,0.6-2.3
			c0-1-0.3-1.9-1-2.7c-2,1.2-3.8,2.5-5.4,3.8c-1.6,1.4-2.5,2.6-2.9,3.8c0,0.2,0,0.3,0,0.4c0,0.3,0.1,0.6,0.4,0.9
			C314.8,86.3,315.2,86.5,315.9,86.5z"/>
	</g>
	<g>
		<g>
			<path class="st0" d="M91.3,79.7l-1.9,0.8c0,0-17-12.7-28.4-13.8s-46.4,4-53.8-2.5S3.9,50.3,6.5,46.6C9.1,43,27,36.9,43.1,48.1
				s18.4,16.6,18.4,16.6S85.5,72.2,91.3,79.7z"/>
			<path class="st1" d="M24,41.7l4.8,12l11.8,2.9c0,0-10.7-7.2-6.9-13.2c0,0,4.3,1.5,6.7,3l4.1,11.1l3.7,1.1l5.1,1.6
				c0,0-6-5.7-4.6-7.9c0,0,4.1,3.2,6.3,5.2l2.5,5.1l-3-1.5c0,0-5.9,2.7-5.7,5.8L43.4,67c0,0,2-6.9,4-9l-5.7-0.7c0,0-3.7,3.9-3,10
				l-6,0.2c0,0,0-5.7,3.7-11.2l-4.1-1.5c0,0-6,10.5-5.1,12.8l-5.6-0.1c0,0,0.2-7.6,6-13.3l-4.9-0.4c0,0-7.3,10-5.5,13.5l-4.7-0.7
				c0,0,1.4-10.1,6.2-13.4c0,0-15.3,2.2-15.6,3.7c0,0-0.3-3.1,0.9-5.5c0,0,6.4-3.7,15.4,1.4l3.4,0.6c0,0-5.7-6.6-4.3-11.3L24,41.7z"
				/>
			<path class="st2" d="M90.2,79.9c0,0-13.9-10.9-28.7-15.2c0,0-6.2-3.3-9.1-9.6l-2.1-1.7c0,0,3.5,5.6,5,7.2c0,0-7.2-3.6-12.8-4.1
				c0,0-5.6-7.5-4.5-11.5l-1.6-0.7c0,0-1.8,5.5,5.1,11.9c0,0-11.1-2.8-14.9-2.6c0,0-5.3-9.9-4.3-11.9l-1.4,0.1c0,0-0.3,6.5,4.1,11.4
				c0,0-15.3-3.2-21.6,0.5L3,54.9c0,0,2.4-3.3,17.3-1.1c0,0-8.1,7.8-6.1,12.9l1.2,0.2c0,0-1.6-6.6,6.3-13l8.2,0.9
				c0,0-7.1,7.4-5.7,12.7l1.3,0c0,0,0.1-6.1,5.5-12.4l7.2,1.5c0,0-4.3,7.6-3.1,10.7l1.6-0.1c0,0-1.5-5.3,3.2-10.1c0,0,8,1.8,9.7,2.5
				c0,0-5.2,6.3-4.8,7.2l1.8-0.1c0,0,1.1-4.1,4.7-6.9c0,0,4.8,2.3,5.8,3.4c0,0,1.6,2,5,2.6C62.1,66,72.5,67.5,90.2,79.9z"/>
		</g>
		<g>
			<path class="st3" d="M69.6,64.5l0.2-2c0,0-13-11.4-14.6-15.3c0,0,10.6-7.7-5.4-22.2c0,0-6.1,11.2-1.4,18c2.2,3.8,5.6,4.6,5.6,4.6
				S57.3,52.7,69.6,64.5z"/>
			<path class="st4" d="M54.5,47.6C54,47,53.5,46,53.5,46s-5.1-3.4-5.5-3.4c-0.3,0,5,2.1,5.4,2.5c0.4,0.3-0.2-2.6-0.2-2.6
				s-5-4.5-6.3-4.4c0,0,4.4,2.2,6.3,3.8l-1-3.8c0,0-2.5-3.4-3.9-3.6c0,0,1.8,0.1,3.5,2.3l-1.8-7l2.8,8.1c0,0,1-4.5,1.8-5.1
				c0,0-1.7,5.6-1.6,6.3c0.1,0.7,1.5,4.4,1.5,4.4s2.3-5.9,3.4-6.9c0,0-3,6.7-3.2,8c0,0,0,2.2,0.4,3c0.5,0.8,5.5,6.9,5.5,6.9
				S54.9,48.3,54.5,47.6z"/>
		</g>
		<g>
			<g>
				<path class="st5" d="M45.4,64c-5.7-0.1-10.4-2.6-13.2-4.5c-5.1,0.4-12.3,1.3-15.5,3.5c0,0,10.7,5.2,20.2,5.1
					C41.3,65.4,45.4,64,45.4,64z"/>
				<path class="st5" d="M36.1,33c0,0-5.3,9.8,3.9,20.7c-4.9-4.5-12.6-10.4-17.3-9.8c0,0,2.8,7.8,9.7,12.6c3.9-0.5,8.3,0.2,11.3,0.9
					c0.1,0,0.2,0,0.3,0.1c2,0.5,3.4,0.9,3.4,0.9c-10.3-8-8.1-17.7-8.1-17.7c3.4,2.3,6,5.1,7.8,7.8C45.1,43.9,41.6,37.8,36.1,33z"/>
				<path class="st5" d="M28.3,82c0,0,19.8-7.5,21.7-15.2c-4.5,5.7-13.7,7.7-18.4,8.4C30.1,77.2,28.9,79.5,28.3,82z"/>
			</g>
			<path class="st6" d="M39.3,40.8c0,0-2.2,9.6,8.1,17.7c0,0-1.3-0.4-3.4-0.9c-0.1,0-0.2,0-0.3-0.1c-3-0.7-7.4-1.4-11.3-0.9
				c-1.1,0.1-2.1,0.4-3,0.7c0,0,1,1,2.8,2.2c2.8,1.9,7.4,4.4,13.2,4.5c0,0-4.1,1.4-8.5,4.1c-3.1,1.9-6.3,4.4-8.3,7.6
				c0,0,1.2-0.1,3-0.3c4.7-0.7,13.9-2.8,18.4-8.4c0.2-0.2,0.4-0.5,0.6-0.8c0,0,1.6-5.4,1.3-6.7c-0.2-0.9-1.4-5.7-4.8-10.8
				C45.2,45.8,42.7,43,39.3,40.8z"/>
			<path class="st7" d="M35,51.4c-1.1,0.4-1.9,1-1.8,1.4c0.1,0.3,0.6,0.4,1.2,0.2c0.2,0,0.4-0.1,0.5-0.2c5.5,3.6,10.4,5.2,10.4,5.2
				L36,52.4c0.8-0.4,1.4-0.9,1.3-1.1C37.1,50.9,36.1,51,35,51.4z"/>
			<path class="st7" d="M32.4,53.9c-1.1,0.4-1.9,1-1.8,1.4c0.1,0.3,0.6,0.4,1.2,0.2c0.2,0,0.4-0.1,0.5-0.2c1,0.8,0.9,1.4,3.6,1.1
				l-2.5-1.5c0.8-0.4,1.4-0.9,1.3-1.1C34.5,53.4,33.5,53.5,32.4,53.9z"/>
			<path class="st7" d="M33.7,67.4c-0.9-0.6-1.4-1.3-1.3-1.6c0.2-0.3,0.6-0.2,1.1,0.1c0.1,0.1,0.3,0.2,0.4,0.3
				c5.6-1.9,10.3-2.2,10.3-2.2l-9.5,2.8c0.6,0.5,1,1.1,0.9,1.3C35.4,68.3,34.6,68,33.7,67.4z"/>
			<path class="st7" d="M28.8,64.9c-0.9-0.8-1.4-1.6-1.2-1.9c0.2-0.3,0.7-0.1,1.2,0.3c0.1,0.1,0.3,0.2,0.4,0.3
				c6.4-1.4,9.6-0.9,9.6-0.9l-8.8,1.7c0.6,0.7,1,1.3,0.8,1.5C30.6,66.1,29.7,65.7,28.8,64.9z"/>
			<path class="st7" d="M25.3,60.3c-0.8-0.9-1.2-1.8-0.9-2c0.3-0.2,0.7,0,1.2,0.4c0.1,0.1,0.3,0.3,0.4,0.4c2.1-0.2,3.9-0.2,5.2-0.2
				c0,0,0.5,0,0.5,0l0.5,0.5l0,0.2c-1.8,0.1-3.6,0.2-5.4,0.3c0.2,0.1,0.4,0.5,0.6,1c0.1,0.3,0.1,0.5,0,0.6
				C26.9,61.7,26.1,61.2,25.3,60.3z"/>
		</g>
		<path class="st8" d="M48.9,13.3c0,0-4.5-10.5-7.9-7.9s7.9,8.5,7.9,8.5l1.7,2.7c0,0-7-4.1-7.1-1.7c0,2.4,8,3.3,8,3.3l2.2,3.4
			c0,0-6.8-3.1-7.3-1.1s7.8,2.4,7.8,2.4l2.1,3.6c0,0-5.7-3.1-6.9-1.1c-1.2,2,7.5,2.8,7.5,2.8s1.9,3,2,3.6c0,0-6.2-3.2-7.1-1.8
			c-0.9,1.4,7.8,3.9,7.8,3.9s1.5,3.5,1.5,6.8l0.7,0c0,0-0.6-5.8-1.7-7.1c0,0,4.6-3.1,3.6-5.1s-4,3.8-4,3.8l-0.8-2
			c0,0,3.6-5.3,2.2-9.2s-3,7.4-3,7.4l-1.4-2.7c0,0,3.4-8.9,1.4-10c-2-1.1-2.4,8.2-2.4,8.2l-2.1-3.7c0,0,2.3-7.2,0.5-8.5
			s-1.7,6.2-1.7,6.2l-1.8-2.8c0,0,1-7.8-0.8-8.8c-1.7-1-0.2,7.6-0.2,7.6L48.9,13.3z"/>
		<g>
			<path class="st9" d="M97,88.7l0.7-1.9c0,0-13.5-16.3-15.2-27.7s1.6-46.5-5.2-53.7S63.2,2.9,59.7,5.6c-3.5,2.8-8.7,21,3.3,36.5
				s17.5,17.5,17.5,17.5S89.2,83.2,97,88.7z"/>
			<path class="st10" d="M55.6,23.3l12.2,4.2l3.5,11.7c0,0-7.7-10.4-13.5-6.2c0,0,1.7,4.2,3.3,6.5l11.2,3.5l1.3,3.7l1.8,5
				c0,0-6-5.7-8.2-4.2c0,0,3.4,4,5.5,6l5.3,2.3l-1.6-2.9c0,0,2.4-6,5.5-6l0-5.5c0,0-6.8,2.3-8.8,4.5l-1-5.7c0,0,3.7-3.9,9.9-3.5
				l-0.1-6c0,0-5.7,0.3-11,4.2l-1.7-4c0,0,10.2-6.5,12.5-5.7l-0.4-5.6c0,0-7.6,0.6-13,6.7l-0.7-4.9c0,0,9.7-7.8,13.2-6.1l-0.9-4.6
				c0,0-10.1,1.9-13,6.8c0,0,1.4-15.3,2.9-15.8c0,0-3.1-0.1-5.4,1.2c0,0-3.3,6.6,2.2,15.3l0.8,3.4c0,0-6.9-5.4-11.5-3.8L55.6,23.3z"
				/>
			<path class="st11" d="M97.1,87.6c0,0-11.5-13.3-16.6-28c0,0-3.6-6-10.1-8.6l-1.8-2c0,0,5.8,3.2,7.5,4.6c0,0-4-7-4.7-12.6
				c0,0-7.8-5.2-11.7-4l-0.8-1.6c0,0,5.4-2,12.1,4.5c0,0-3.4-10.9-3.4-14.8c0,0-10.2-4.8-12.1-3.7l0-1.4c0,0,6.5-0.7,11.6,3.5
				c0,0-3.9-15.1-0.6-21.6l1.3-0.3c0,0-3.1,2.5-0.2,17.3c0,0,7.4-8.5,12.6-6.7l0.2,1.2c0,0-6.7-1.2-12.6,6.9l1.3,8.1
				c0,0,7.1-7.5,12.4-6.3l0.1,1.3c0,0-6.1,0.4-12.1,6.1l1.9,7.1c0,0,7.4-4.6,10.5-3.6l0,1.6c0,0-5.4-1.2-9.9,3.7
				c0,0,2.2,7.9,2.9,9.6c0,0,6-5.5,7-5.2l0,1.8c0,0-4,1.3-6.6,5c0,0,2.6,4.6,3.7,5.6c0,0,2.1,1.5,2.8,4.9
				C81.9,60.2,83.8,70.5,97.1,87.6z"/>
		</g>
		<g>
			<path class="st12" d="M35.1,18.4c0,0-7.5,5-7.6,17.1c-0.2,12.1,5.8,13.2,5.8,13.2s4.2,0.8,7-0.6c0,0,3.4,0.8,7.4-2.8
				s11.7-17.4,6-23S42.5,14.5,35.1,18.4z"/>
			<path class="st13" d="M40.2,30.8c0,0-7.1,6.1-4.6,7.7c2.5,1.6,11.6-8.3,8.5-11.5c-3-3.2-13,2.9-11,14.7
				C35,53.6,54,30.6,48.5,24.9s-11.2-2.2-15.1,3.7s-5.6,15.5-1.2,18.2S46,40.8,46,40.8S57.7,29.3,53.1,24s-11.3-6.5-16.8-2.7
				s-8.2,11-8.2,11"/>
		</g>
		<path class="st14" d="M92.7,81.3l-0.4,0.2c0,0-10.2-14.8-18.9-18.7l-2.6,1.5c0,0,1.7,2.6,1.4,7.1c0,0-3.4-3.8-2.6-6.4
			c0,0-1.3,0.5-2.1,0.9c0,0-0.8,3.1-6.2,2.8c0,0,1.4-3.2,5.7-3.2l2.2-1c0,0-2.8,0.5-5.1-2.5c0,0,3.2-0.8,6.1,1.8l2.3-1.1
			c0,0-3.1-1.8-7.2-3.6L62,60.4c0,0,0.1,2.8-4.8,5.7c0,0-0.4-1.5,3.4-5.3c0,0-1.6,0.7-3.3,0.6c0,0-2.9,2.6-6.9,0.7
			c0,0,2.9-2.6,6.3-1.2c0,0,2.1,0.2,3-0.3c0,0-3.1-0.6-4.3-3.5c0,0,4.6,0.3,6.4,2.7c0,0,2.3-0.3,3-1.2c0,0-8-2.7-9.3-3
			c0,0-5.9,1.2-9.1-2.3c0,0,6.2-1.2,9.2,2c0,0,7.6,1.8,8.7,2.7c0,0-0.8-2.5-1.3-3c0,0-4.9,0.1-7.2-2.1c0,0,3.2-1.6,6.5,0.9
			c0,0-0.8-1.8-1.8-2.6c0,0-2.4-0.2-4.5-5.5c0,0,4.6,2,5,5.2c0,0,1.5,2,1.7,2.6c0,0-0.3-4.9,0.6-6.4c0,0,2.7,4.9,0.3,7.3l1.4,3.7
			c0,0,7,3.1,8.2,4c0,0,0.5-2.5-0.2-3.7c0,0-4.3-0.4-7.2-3.7c0,0,4.5-0.3,6.9,2.6c0,0-0.3-2.3-1-2.9c0,0-3.9-1.3-4.3-6.7
			c0,0,4.4,2.1,5,6.7c0,0,0.6,1.3,1,3.1c0,0,1.6-3.6,3.4-4.3c0,0,0.7,4.1-3,5c0,0,0.6,2.7,0.1,4.2C73.6,62.3,80.5,64.5,92.7,81.3z"
			/>
		<path class="st15" d="M56.7,39.3c0,0-4.5-10.5-7.9-7.9s7.9,8.5,7.9,8.5l1.7,2.7c0,0-7-4.1-7.1-1.7c0,2.4,8,3.3,8,3.3l2.2,3.4
			c0,0-6.8-3.1-7.3-1.1c-0.4,2,7.8,2.4,7.8,2.4l2.1,3.6c0,0-5.7-3.1-6.9-1.1c-1.2,2,7.5,2.8,7.5,2.8s1.9,3,2,3.6
			c0,0-6.2-3.2-7.1-1.8s7.8,3.9,7.8,3.9s1.5,3.5,1.5,6.8l0.7,0c0,0-0.6-5.8-1.7-7.1c0,0,4.6-3.1,3.6-5.1c-1-2-4,3.8-4,3.8l-0.8-2
			c0,0,3.6-5.3,2.2-9.2c-1.4-3.9-3,7.4-3,7.4l-1.4-2.7c0,0,3.4-8.9,1.4-10c-2-1.1-2.4,8.2-2.4,8.2l-2.1-3.7c0,0,2.3-7.2,0.5-8.5
			s-1.7,6.2-1.7,6.2l-1.8-2.8c0,0,1-7.8-0.8-8.8c-1.7-1-0.2,7.6-0.2,7.6L56.7,39.3z"/>
		<path class="st16" d="M39.3,45.6c0,0-10.9-3.4-11.1,0.9s11.6-0.5,11.6-0.5l3.2,0.5c0,0-7.7,2.7-5.9,4.3c1.8,1.6,7.7-3.9,7.7-3.9
			l4,0.5c0,0-6.8,3.2-5.6,4.8c1.2,1.6,6.9-4.4,6.9-4.4l4.1,0.8c0,0-6.1,2.4-5.3,4.6c0.8,2.2,7-3.9,7-3.9s3.5,0.5,4,0.8
			c0,0-6.5,2.6-6,4.2c0.5,1.6,8-3.4,8-3.4s3.7,1.1,6.1,3.3l0.5-0.5c0,0-4.8-3.3-6.5-3.3c0,0,0.6-5.5-1.5-6s0.3,5.5,0.3,5.5l-2-0.7
			c0,0-1.7-6.2-5.5-7.7s3.7,7.1,3.7,7.1l-3-0.6c0,0-4.6-8.4-6.7-7.6c-2.1,0.8,4.7,7.1,4.7,7.1L48,46.7c0,0-4-6.4-6.1-5.9
			s3.6,5.3,3.6,5.3l-3.3-0.5c0,0-5.3-5.8-7.2-5.1c-1.9,0.7,5.6,5.1,5.6,5.1L39.3,45.6z"/>
		<g>
			<path class="st17" d="M94.6,90.8l0.2-2c0,0-13-11.4-14.6-15.3c0,0,10.6-7.7-5.4-22.2c0,0-6.1,11.2-1.4,18
				c2.2,3.8,5.6,4.6,5.6,4.6S82.3,79,94.6,90.8z"/>
			<path class="st18" d="M79.5,73.9c-0.4-0.7-0.9-1.7-0.9-1.7s-5.1-3.4-5.5-3.4s5,2.1,5.4,2.5c0.4,0.3-0.2-2.6-0.2-2.6
				s-5-4.5-6.3-4.4c0,0,4.4,2.2,6.3,3.8l-1-3.8c0,0-2.5-3.4-3.9-3.6c0,0,1.8,0.1,3.5,2.3l-1.8-7l2.8,8.1c0,0,1-4.5,1.8-5.1
				c0,0-1.7,5.6-1.6,6.3s1.5,4.4,1.5,4.4s2.3-5.9,3.4-6.9c0,0-3,6.7-3.2,8c0,0,0,2.2,0.4,3c0.5,0.8,5.5,6.9,5.5,6.9
				S79.9,74.6,79.5,73.9z"/>
		</g>
		<g>
			<path class="st19" d="M50,55.8c0,0,3.2,7.6,5.9,6s-4.1-6.9-4.1-6.9s7.3,4.3,7.7,1.2c0.4-3.2-7.7-3.1-7.7-3.1s8.7-1.2,6.4-4.5
				s-6.9,3.2-6.9,3.2s2.4-7.5,0.2-7.8c-2.2-0.3-3.1,1.5-2.6,7.8c0,0-3.2-6.7-5.6-5.8s4,7.7,4,7.7s-8-1.6-8,2c0,3.6,8.6-0.3,8.6-0.3
				s-2.8,5.9-1,6.9C48.9,63.1,50,55.8,50,55.8z"/>
			<circle class="st20" cx="49.9" cy="53.5" r="2.4"/>
		</g>
		<g>
			<path class="st19" d="M62.5,50.7c0,0,2.9,6.9,5.4,5.5s-3.7-6.3-3.7-6.3s6.7,4,7.1,1.1s-7-2.8-7-2.8s7.9-1.1,5.8-4.1
				s-6.3,2.9-6.3,2.9S66,40,64,39.7c-2-0.3-2.8,1.4-2.4,7.1c0,0-2.9-6.1-5.1-5.3c-2.2,0.8,3.7,7,3.7,7s-7.3-1.5-7.3,1.8
				s7.9-0.3,7.9-0.3s-2.5,5.4-0.9,6.3S62.5,50.7,62.5,50.7z"/>
			<circle class="st20" cx="62.4" cy="48.6" r="2.2"/>
		</g>
		<g>
			<path class="st21" d="M99.8,85.4l-2.7,0.8c0,0-18.4-15.3-24.1-16.5c0,0-8.1,16.2-31.5-2.5c0,0,13.9-10.9,24.3-6
				c5.7,2.2,7.5,6.6,7.5,6.6S81,71.2,99.8,85.4z"/>
			<path class="st22" d="M73.5,68.4c-1-0.4-2.5-0.9-2.5-0.9s-5.8-6.3-5.9-6.7s4,6.3,4.5,6.8c0.5,0.4-3.7,0.3-3.7,0.3
				s-7.2-5.9-7.4-7.6c0,0,4,5.5,6.6,7.7l-5.4-0.6c0,0-5.1-2.7-5.8-4.6c0,0,0.6,2.4,4,4.2l-9.9-1l11.7,2.1c0,0-5.9,2.4-6.6,3.5
				c0,0,7.2-3.6,8.2-3.6s6.4,1,6.4,1s-7.5,4.4-8.7,6.1c0,0,8.5-5.6,10.2-6.1c0,0,3-0.5,4.2-0.1c1.2,0.5,10.7,5.9,10.7,5.9
				S74.5,68.9,73.5,68.4z"/>
		</g>
		<g>
			<path class="st23" d="M85.6,81.9l1.1,0.9c0,0,4.2-6.1,3.7-6.5c-0.5-0.4-0.8-1-0.8-1L85.6,81.9z"/>
			<path class="st24" d="M86.2,82.4l0.7,0.8c0,0,4.4-4.9,4.4-5.2c0-0.2-0.3-0.6-0.3-0.6L86.2,82.4z"/>
			<path class="st24" d="M90.6,77l0.3,0.4l-5.6,4c0,0-0.4-0.2-0.6-0.6C84.7,80.8,90.3,77.4,90.6,77z"/>
			<path class="st25" d="M89.7,70.8c-1.3,1-2,3.9-2.4,5.8c-0.3,0-1,0.2-1.4,0.8c0,0,0,0,0,0c0,0,0,0,0,0c-0.5,0.5-0.6,1.1-0.5,1.5
				c-1.8,0.6-4.6,1.8-5.3,3.3c-1.1,2.2-1.5,3.4-0.3,4.5c1.1,1,3.5,1.9,4.6,0.4c0.8-1.1,2.2-4.8,3-6.7c1,1.3,3.6,4.9,3.6,5.5
				c0,0,1.9,1.5,1.9,0.6c0-0.8-3.2-4.9-4.7-6.6c0.1,0,0.1,0,0.2-0.1c0,0,0,0,0.1,0c0,0,0.1,0,0.1-0.1c0,0,0,0,0,0c0,0,0,0,0,0
				c0,0,0-0.1,0.1-0.1c0,0,0,0,0,0c1.4,1,7.1,5.1,7.4,5.8c0,0,1.4-1.5,0.3-2.4c-1-0.8-5.9-3.7-7.6-4.3c1.6-0.9,5.5-3.2,6.5-4.2
				c1.3-1.3,0.1-3.5-1.1-4.5C92.9,68.7,91.8,69.3,89.7,70.8z M82.9,86.8c-0.6,0.3-1.5-0.5-2-1c-0.5-0.5-0.6-1.7,0.8-3.1
				c1.4-1.4,4.8-3.3,4.8-3.3C86.3,80.8,83.5,86.5,82.9,86.8z M94.9,72.7c-0.2,0.6-5.4,4.3-6.7,4.7c0,0,1.4-3.7,2.5-5.3
				c1.1-1.6,2.3-1.7,2.9-1.3C94.2,71.3,95.1,72.1,94.9,72.7z"/>
		</g>
	</g>
</g>
<g id="Layer_1">
</g>
</svg>
