<?xml version="1.0" encoding="utf-8"?>
<!-- Generator: Adobe Illustrator 16.0.0, SVG Export Plug-In . SVG Version: 6.00 Build 0)  -->
<!DOCTYPE svg PUBLIC "-//W3C//DTD SVG 1.1//EN" "http://www.w3.org/Graphics/SVG/1.1/DTD/svg11.dtd">
<svg version="1.1" id="Capa_1" xmlns="http://www.w3.org/2000/svg" xmlns:xlink="http://www.w3.org/1999/xlink" x="0px" y="0px"
	 width="1200px" height="1200px" viewBox="0 0 1200 1200" enable-background="new 0 0 1200 1200" xml:space="preserve">
<g>
	<path d="M1046.828,153.174c-137.559-137.563-361.389-137.563-498.95,0c-137.561,137.561-137.561,361.387,0,498.951
		c137.561,137.561,361.391,137.561,498.95,0C1184.389,514.561,1184.389,290.734,1046.828,153.174z M1009.565,614.86
		c-117.014,117.017-307.416,117.014-424.422,0c-117.021-117.013-117.021-307.412,0-424.425
		c117.013-117.018,307.409-117.014,424.422,0C1126.578,307.448,1126.586,497.848,1009.565,614.86z"/>
	<path d="M491.89,651.713L52.875,1055.106c-20.349,18.684,73.331,112.359,92.019,92.018L548.283,708.11
		C555.105,700.678,499.322,644.895,491.89,651.713z"/>
</g>
</svg>
